<?xml version="1.0" encoding="UTF-8"?>
<svg xmlns="http://www.w3.org/2000/svg" version="1.1" viewBox="0 0 22 20">
  <defs>
    <style>
      .cls-1 {
        fill: #1d1d1b;
      }
    </style>
  </defs>
  <!-- Generator: Adobe Illustrator 28.7.3, SVG Export Plug-In . SVG Version: 1.2.0 Build 164)  -->
  <g>
    <g id="Ebene_1">
      <path class="cls-1" d="M20.9,3.6H3.9l-.3-2.8C3.6.4,3.2,0,2.7,0H.9C.4,0,0,.4,0,.9s.4.9.9.9h1l1,11.5c0,.8.5,1.7,1.3,2.3-1.4,1.8-.1,4.4,2.1,4.4s3.2-1.9,2.6-3.6h4.9c-.6,1.8.7,3.6,2.6,3.6,1.5,0,2.7-1.2,2.7-2.7,0-1.5-1.2-2.7-2.7-2.7H6.4c-.7,0-1.3-.4-1.5-1l14.3-.8c.4,0,.7-.3.8-.7l1.8-7.3c.1-.5-.2-1-.7-1.1,0,0-.1,0-.2,0h0ZM6.4,18.2c-.5,0-.9-.5-.9-1,0-.5.4-.9.9-.9.5,0,.9.5.9,1,0,.5-.4.9-.9.9ZM16.4,18.2c-.5,0-.9-.5-.9-1,0-.5.4-.9.9-.9.5,0,.9.5.9,1,0,.5-.4.9-.9.9ZM18.4,11l-13.8.8-.6-6.3h15.8l-1.4,5.5h0Z"/>
    </g>
  </g>
</svg>